<?xml version="1.0" encoding="UTF-8" standalone="no"?>
<svg
   viewBox="0 0 906.78003 28.35"
   version="1.1"
   id="svg1303"
   width="906.78003"
   height="28.35"
   xmlns="http://www.w3.org/2000/svg"
   xmlns:svg="http://www.w3.org/2000/svg"
   xmlns:rdf="http://www.w3.org/1999/02/22-rdf-syntax-ns#"
   xmlns:cc="http://creativecommons.org/ns#"
   xmlns:dc="http://purl.org/dc/elements/1.1/">
  <defs
	 id="defs1139">
	<style
	   id="style1112">
			.cls-1 {
				fill: url(#linear-gradient);
			}

			.cls-2 {
				fill: none;
				stroke: #000;
				stroke-miterlimit: 10;
			}
		</style>
	<linearGradient
	   id="linear-gradient"
	   x1="77.889999"
	   y1="6.5799999"
	   x2="906.28003"
	   y2="6.5799999"
	   gradientUnits="userSpaceOnUse">
	  <stop
		 offset="0.11"
		 stop-color="#ec5b13"
		 id="stop1114" />
	  <stop
		 offset="0.21"
		 stop-color="#ecc814"
		 id="stop1116" />
	  <stop
		 offset="0.24"
		 stop-color="#eac914"
		 id="stop1118" />
	  <stop
		 offset="0.25"
		 stop-color="#e2cd14"
		 id="stop1120" />
	  <stop
		 offset="0.27"
		 stop-color="#d4d413"
		 id="stop1122" />
	  <stop
		 offset="0.28"
		 stop-color="#c0de13"
		 id="stop1124" />
	  <stop
		 offset="0.29"
		 stop-color="#a8ea12"
		 id="stop1126" />
	  <stop
		 offset="0.29"
		 stop-color="#a4ec12"
		 id="stop1128" />
	  <stop
		 offset="0.38"
		 stop-color="#12ec5b"
		 id="stop1130" />
	  <stop
		 offset="0.59"
		 stop-color="#12b6ec"
		 id="stop1132" />
	  <stop
		 offset="0.79"
		 stop-color="#2513ec"
		 id="stop1134" />
	  <stop
		 offset="1"
		 stop-color="#ec13ec"
		 id="stop1136" />
	</linearGradient>
  </defs>
  <title
	 id="title1141">alt_legend_feet</title>
  <g
	 id="Layer_2"
	 data-name="Layer 2">
	<g
	   id="REDESIGN">
	  <rect
		 class="cls-1"
		 x="77.889999"
		 width="828.40002"
		 height="13.17"
		 id="rect1143"
		 y="0"
		 style="fill:url(#linear-gradient)" />
	  <polyline
		 class="cls-2"
		 points="78 0 78 13.4 906.28 13.4 906.28 0"
		 id="polyline1145" />
	  <path
		 d="m 75.53,22.36 c 0,-1.87 0.13,-4.37 2.42,-4.36 2.29,0.01 2.42,2.28 2.42,4.37 0,1.8 -0.13,4.29 -2.42,4.29 -2.29,0 -2.42,-2.29 -2.42,-4.3 z m 2.47,3.5 c 1.3,0 1.37,-1.71 1.37,-3.5 0,-1.79 -0.07,-3.57 -1.37,-3.58 -1.3,-0.01 -1.37,1.7 -1.37,3.57 0,1.87 0.03,3.51 1.37,3.51 z"
		 id="path1147" />
	  <path
		 d="m 870.83,18.13 h 1 v 5.57 h 1 v 0.86 h -1 v 2.05 h -1 v -2.04 h -3.07 v -0.95 z m -2.16,5.58 h 2.16 v -3.93 0 z"
		 id="path1149" />
	  <path
		 d="m 873.62,22.49 c 0,-1.87 0.13,-4.37 2.42,-4.37 2.29,0 2.42,2.28 2.42,4.37 0,1.8 -0.13,4.29 -2.42,4.29 -2.29,0 -2.42,-2.27 -2.42,-4.29 z M 876,26 c 1.3,0 1.37,-1.71 1.37,-3.5 0,-1.79 -0.07,-3.57 -1.37,-3.57 -1.3,0 -1.37,1.7 -1.37,3.57 0,1.87 0.12,3.5 1.37,3.5 z"
		 id="path1151" />
	  <path
		 d="m 879.81,25.35 h 1.1 v 1 c 0,0.91 -0.07,1.73 -1.1,2 v -0.56 a 0.84,0.84 0 0 0 0.53,-0.92 v -0.29 h -0.53 z"
		 id="path1153" />
	  <path
		 d="m 882.26,22.49 c 0,-1.87 0.13,-4.37 2.42,-4.37 2.29,0 2.42,2.28 2.42,4.37 0,1.8 -0.13,4.29 -2.42,4.29 -2.29,0 -2.42,-2.27 -2.42,-4.29 z m 2.42,3.5 c 1.29,0 1.37,-1.71 1.37,-3.5 0,-1.79 -0.07,-3.57 -1.37,-3.57 -1.3,0 -1.37,1.7 -1.37,3.57 0,1.87 0.08,3.51 1.37,3.51 z"
		 id="path1155" />
	  <path
		 d="m 888,22.49 c 0,-1.87 0.13,-4.37 2.42,-4.37 2.29,0 2.42,2.28 2.42,4.37 0,1.8 -0.13,4.29 -2.42,4.29 -2.29,0 -2.42,-2.27 -2.42,-4.29 z m 2.42,3.5 c 1.3,0 1.37,-1.71 1.37,-3.5 0,-1.79 -0.07,-3.57 -1.37,-3.57 -1.3,0 -1.37,1.7 -1.37,3.57 0,1.87 0.1,3.51 1.39,3.51 z"
		 id="path1157" />
	  <path
		 d="m 893.78,22.49 c 0,-1.87 0.13,-4.37 2.42,-4.37 2.29,0 2.42,2.28 2.42,4.37 0,1.8 -0.13,4.29 -2.42,4.29 -2.29,0 -2.42,-2.27 -2.42,-4.29 z M 896.2,26 c 1.3,0 1.37,-1.71 1.37,-3.5 0,-1.79 -0.07,-3.57 -1.37,-3.57 -1.3,0 -1.37,1.7 -1.37,3.57 0,1.87 0.08,3.5 1.37,3.5 z"
		 id="path1159" />
	  <path
		 d="m 902.29,24 h -2.64 v -0.79 h 2.64 v -2.66 h 0.79 v 2.64 h 2.64 V 24 h -2.64 v 2.64 h -0.79 z"
		 id="path1161" />
	  <line
		 class="cls-2"
		 x1="720.95001"
		 x2="720.95001"
		 y2="14.19"
		 id="line1163"
		 y1="0" />
	  <path
		 d="m 707.27,21.83 h 0.53 c 0.9,0 1.29,-0.65 1.29,-1.5 0,-0.85 -0.29,-1.42 -1.1,-1.42 -1.12,0 -1.22,1 -1.22,1.66 h -1.06 c 0,-1.45 0.68,-2.45 2.25,-2.45 a 2,2 0 0 1 2.18,2.21 1.75,1.75 0 0 1 -1.32,1.82 v 0 a 1.81,1.81 0 0 1 1.57,2 c 0,1.55 -0.78,2.63 -2.41,2.63 a 2.26,2.26 0 0 1 -2.41,-2.36 v -0.11 h 1.06 c 0,0.78 0.38,1.68 1.36,1.68 0.62,0 1.35,-0.31 1.35,-1.75 a 1.42,1.42 0 0 0 -1.54,-1.62 h -0.54 z"
		 id="path1165" />
	  <path
		 d="m 711.33,22.49 c 0,-1.87 0.13,-4.37 2.42,-4.37 2.29,0 2.42,2.28 2.42,4.37 0,1.8 -0.13,4.29 -2.42,4.29 -2.29,0 -2.42,-2.27 -2.42,-4.29 z m 2.42,3.5 c 1.29,0 1.37,-1.71 1.37,-3.5 0,-1.79 -0.07,-3.57 -1.37,-3.57 -1.3,0 -1.37,1.7 -1.37,3.57 0,1.87 0.08,3.51 1.37,3.51 z"
		 id="path1167" />
	  <path
		 d="m 717.52,25.35 h 1.1 v 1 c 0,0.91 -0.07,1.73 -1.1,2 v -0.56 a 0.84,0.84 0 0 0 0.53,-0.92 v -0.29 h -0.53 z"
		 id="path1169" />
	  <path
		 d="m 720,22.49 c 0,-1.87 0.13,-4.37 2.42,-4.37 2.29,0 2.42,2.28 2.42,4.37 0,1.8 -0.13,4.29 -2.42,4.29 -2.29,0 -2.42,-2.27 -2.42,-4.29 z m 2.42,3.5 c 1.3,0 1.37,-1.71 1.37,-3.5 0,-1.79 -0.07,-3.57 -1.37,-3.57 -1.3,0 -1.42,1.7 -1.42,3.57 0,1.87 0.09,3.51 1.39,3.51 z"
		 id="path1171" />
	  <path
		 d="m 725.73,22.49 c 0,-1.87 0.13,-4.37 2.42,-4.37 2.29,0 2.42,2.28 2.42,4.37 0,1.8 -0.13,4.29 -2.42,4.29 -2.29,0 -2.42,-2.27 -2.42,-4.29 z m 2.42,3.5 c 1.29,0 1.37,-1.71 1.37,-3.5 0,-1.79 -0.07,-3.57 -1.37,-3.57 -1.3,0 -1.37,1.7 -1.37,3.57 0,1.87 0.08,3.51 1.37,3.51 z"
		 id="path1173" />
	  <path
		 d="m 731.49,22.49 c 0,-1.87 0.13,-4.37 2.42,-4.37 2.29,0 2.42,2.28 2.42,4.37 0,1.8 -0.13,4.29 -2.42,4.29 -2.29,0 -2.42,-2.27 -2.42,-4.29 z m 2.42,3.5 c 1.29,0 1.37,-1.71 1.37,-3.5 0,-1.79 -0.07,-3.57 -1.37,-3.57 -1.3,0 -1.37,1.7 -1.37,3.57 0,1.87 0.08,3.51 1.37,3.51 z"
		 id="path1175" />
	  <line
		 class="cls-2"
		 x1="551.12"
		 x2="551.12"
		 y2="14.19"
		 id="line1177"
		 y1="0" />
	  <path
		 d="m 540.53,26.62 h -4.75 a 4.53,4.53 0 0 1 1.83,-3.48 l 0.7,-0.59 a 2.51,2.51 0 0 0 1.13,-2 c 0,-0.73 -0.32,-1.52 -1.24,-1.52 -1.31,0 -1.34,1.36 -1.34,1.83 h -1.06 c 0,-1.61 0.67,-2.7 2.41,-2.7 a 2.11,2.11 0 0 1 2.28,2.27 3.35,3.35 0 0 1 -1.49,2.76 l -1.2,1 a 2.64,2.64 0 0 0 -0.92,1.45 h 3.65 z"
		 id="path1179" />
	  <path
		 d="m 541.49,22.49 c 0,-1.87 0.13,-4.37 2.42,-4.37 2.29,0 2.42,2.28 2.42,4.37 0,1.8 -0.13,4.29 -2.42,4.29 -2.29,0 -2.42,-2.27 -2.42,-4.29 z m 2.42,3.5 c 1.29,0 1.37,-1.71 1.37,-3.5 0,-1.79 -0.07,-3.57 -1.37,-3.57 -1.3,0 -1.37,1.7 -1.37,3.57 0,1.87 0.08,3.51 1.38,3.51 z"
		 id="path1181" />
	  <path
		 d="m 547.69,25.35 h 1.1 v 1 c 0,0.91 -0.07,1.73 -1.1,2 v -0.56 a 0.84,0.84 0 0 0 0.53,-0.92 v -0.29 h -0.53 z"
		 id="path1183" />
	  <path
		 d="m 550.13,22.49 c 0,-1.87 0.13,-4.37 2.42,-4.37 2.29,0 2.45,2.28 2.45,4.37 0,1.8 -0.13,4.29 -2.42,4.29 -2.29,0 -2.45,-2.27 -2.45,-4.29 z m 2.42,3.5 c 1.3,0 1.37,-1.71 1.37,-3.5 0,-1.79 -0.07,-3.57 -1.37,-3.57 -1.3,0 -1.37,1.7 -1.37,3.57 0,1.87 0.08,3.51 1.38,3.51 z"
		 id="path1185" />
	  <path
		 d="m 555.89,22.49 c 0,-1.87 0.13,-4.37 2.42,-4.37 2.29,0 2.42,2.28 2.42,4.37 0,1.8 -0.13,4.29 -2.42,4.29 -2.29,0 -2.42,-2.27 -2.42,-4.29 z m 2.42,3.5 c 1.29,0 1.37,-1.71 1.37,-3.5 0,-1.79 -0.07,-3.57 -1.37,-3.57 -1.3,0 -1.37,1.7 -1.37,3.57 0,1.87 0.06,3.51 1.38,3.51 z"
		 id="path1187" />
	  <path
		 d="m 561.65,22.49 c 0,-1.87 0.13,-4.37 2.42,-4.37 2.29,0 2.42,2.28 2.42,4.37 0,1.8 -0.13,4.29 -2.42,4.29 -2.29,0 -2.42,-2.27 -2.42,-4.29 z m 2.42,3.5 c 1.29,0 1.37,-1.71 1.37,-3.5 0,-1.79 -0.07,-3.57 -1.37,-3.57 -1.3,0 -1.37,1.7 -1.37,3.57 0,1.87 0.08,3.51 1.38,3.51 z"
		 id="path1189" />
	  <line
		 class="cls-2"
		 x1="426.53"
		 x2="426.53"
		 y2="14.19"
		 id="line1191"
		 y1="0" />
	  <path
		 d="m 411.35,19.48 c 1.07,-0.06 2.05,-0.19 2.1,-1.39 h 0.72 v 8.49 h -1 V 20.2 h -1.81 z"
		 id="path1193" />
	  <path
		 d="m 416.76,22.46 c 0,-1.87 0.13,-4.37 2.42,-4.36 2.29,0.01 2.42,2.28 2.42,4.37 0,1.8 -0.13,4.29 -2.42,4.29 -2.29,0 -2.42,-2.28 -2.42,-4.3 z m 2.42,3.5 c 1.3,0 1.37,-1.71 1.37,-3.5 0,-1.79 -0.07,-3.57 -1.37,-3.57 -1.3,0 -1.37,1.7 -1.37,3.57 0,1.87 0.08,3.54 1.37,3.54 z"
		 id="path1195" />
	  <path
		 d="m 423,25.32 h 1.1 v 1 c 0,0.91 -0.07,1.73 -1.1,2 V 27.8 a 0.84,0.84 0 0 0 0.53,-0.92 V 26.59 H 423 Z"
		 id="path1197" />
	  <path
		 d="m 425.4,22.46 c 0,-1.87 0.13,-4.37 2.42,-4.36 2.29,0.01 2.42,2.28 2.42,4.37 0,1.8 -0.13,4.29 -2.42,4.29 -2.29,0 -2.42,-2.28 -2.42,-4.3 z m 2.42,3.5 c 1.29,0 1.37,-1.71 1.37,-3.5 0,-1.79 -0.07,-3.57 -1.37,-3.57 -1.3,0 -1.37,1.7 -1.37,3.57 0,1.87 0.08,3.54 1.37,3.54 z"
		 id="path1199" />
	  <path
		 d="m 431.16,22.47 c 0,-1.87 0.13,-4.37 2.42,-4.37 2.29,0 2.42,2.28 2.42,4.37 0,1.8 -0.13,4.29 -2.42,4.29 -2.29,0 -2.42,-2.28 -2.42,-4.29 z m 2.42,3.5 c 1.3,0 1.37,-1.71 1.37,-3.5 0,-1.79 -0.07,-3.57 -1.37,-3.58 -1.3,-0.01 -1.37,1.7 -1.37,3.57 0,1.87 0.08,3.54 1.37,3.54 z"
		 id="path1201" />
	  <path
		 d="m 436.92,22.47 c 0,-1.87 0.13,-4.37 2.42,-4.36 2.29,0.01 2.42,2.28 2.42,4.37 0,1.8 -0.13,4.29 -2.42,4.29 -2.29,0 -2.42,-2.29 -2.42,-4.3 z m 2.42,3.5 c 1.3,0 1.37,-1.71 1.37,-3.5 0,-1.79 -0.07,-3.57 -1.37,-3.58 -1.3,-0.01 -1.34,1.71 -1.34,3.58 0,1.87 0,3.53 1.34,3.53 z"
		 id="path1203" />
	  <line
		 class="cls-2"
		 x1="369.76001"
		 x2="369.76001"
		 y2="14.19"
		 id="line1205"
		 y1="0" />
	  <path
		 d="m 358.35,22.05 a 1.76,1.76 0 0 1 -1.23,-1.81 2.17,2.17 0 0 1 4.34,0 1.76,1.76 0 0 1 -1.24,1.81 2,2 0 0 1 1.5,2.18 2.44,2.44 0 1 1 -4.87,0 2,2 0 0 1 1.5,-2.18 z m 0.93,3.9 c 1,0 1.38,-0.75 1.38,-1.75 0,-1 -0.4,-1.75 -1.38,-1.75 -0.98,0 -1.38,0.75 -1.38,1.75 0,1 0.4,1.75 1.39,1.75 z m -1.11,-5.69 c 0,0.79 0.33,1.39 1.12,1.39 0.79,0 1.12,-0.6 1.12,-1.39 0,-0.79 -0.35,-1.39 -1.12,-1.39 -0.77,0 -1.12,0.59 -1.12,1.39 z"
		 id="path1207" />
	  <path
		 d="m 363.06,25.3 h 1.1 v 1 c 0,0.91 -0.07,1.73 -1.1,2 v -0.56 a 0.84,0.84 0 0 0 0.53,-0.92 v -0.29 h -0.53 z"
		 id="path1209" />
	  <path
		 d="m 365.5,22.45 c 0,-1.87 0.13,-4.36 2.42,-4.36 2.29,0 2.42,2.28 2.42,4.37 0,1.8 -0.13,4.29 -2.42,4.29 -2.29,0 -2.42,-2.29 -2.42,-4.3 z m 2.42,3.5 c 1.3,0 1.37,-1.71 1.37,-3.5 0,-1.79 -0.07,-3.57 -1.37,-3.58 -1.3,-0.01 -1.37,1.7 -1.37,3.57 0,1.87 0.08,3.56 1.38,3.56 z"
		 id="path1211" />
	  <path
		 d="m 371.26,22.45 c 0,-1.87 0.13,-4.37 2.42,-4.36 2.29,0.01 2.42,2.28 2.42,4.37 0,1.8 -0.13,4.29 -2.42,4.29 -2.29,0 -2.42,-2.29 -2.42,-4.3 z m 2.42,3.5 c 1.3,0 1.37,-1.71 1.37,-3.5 0,-1.79 -0.07,-3.57 -1.37,-3.57 -1.3,0 -1.37,1.7 -1.37,3.57 0,1.87 0.08,3.55 1.38,3.55 z"
		 id="path1213" />
	  <path
		 d="m 377,22.45 c 0,-1.87 0.13,-4.37 2.42,-4.36 2.29,0.01 2.42,2.28 2.42,4.37 0,1.8 -0.13,4.29 -2.42,4.29 -2.29,0 -2.42,-2.28 -2.42,-4.3 z m 2.42,3.5 c 1.29,0 1.37,-1.71 1.37,-3.5 0,-1.79 -0.07,-3.57 -1.37,-3.57 -1.3,0 -1.37,1.7 -1.37,3.57 0,1.87 0.1,3.55 1.4,3.55 z"
		 id="path1215" />
	  <line
		 class="cls-2"
		 x1="311.41"
		 x2="311.41"
		 y2="14.19"
		 id="line1217"
		 y1="0" />
	  <path
		 d="m 302.51,20.1 a 1.11,1.11 0 0 0 -1.12,-1.25 c -1.42,0 -1.5,2.11 -1.5,2.55 v 0.67 0 a 1.85,1.85 0 0 1 1.62,-0.95 c 1.48,0 2.22,1.09 2.22,2.69 0,1.6 -0.82,2.9 -2.4,2.9 -2.35,0 -2.52,-2.27 -2.52,-4 0,-1.94 0.12,-4.63 2.58,-4.63 a 2,2 0 0 1 2.15,2 z m -1.15,5.83 c 1.06,0 1.34,-1.08 1.34,-2 0,-0.92 -0.22,-2 -1.34,-2 -1.12,0 -1.36,1.15 -1.36,2.07 0,0.92 0.3,1.93 1.36,1.93 z"
		 id="path1219" />
	  <path
		 d="m 305.07,25.29 h 1.1 v 1 c 0,0.91 -0.07,1.73 -1.1,2 v -0.56 a 0.84,0.84 0 0 0 0.53,-0.92 v -0.29 h -0.53 z"
		 id="path1221" />
	  <path
		 d="m 307.52,22.43 c 0,-1.87 0.13,-4.37 2.42,-4.37 2.29,0 2.42,2.28 2.42,4.37 0,1.8 -0.13,4.29 -2.42,4.29 -2.29,0 -2.42,-2.27 -2.42,-4.29 z m 2.42,3.5 c 1.29,0 1.37,-1.71 1.37,-3.5 0,-1.79 -0.07,-3.57 -1.37,-3.58 -1.3,-0.01 -1.37,1.7 -1.37,3.57 0,1.87 0.07,3.51 1.37,3.51 z"
		 id="path1223" />
	  <path
		 d="m 313.28,22.43 c 0,-1.87 0.13,-4.37 2.42,-4.36 2.29,0.01 2.42,2.28 2.42,4.37 0,1.8 -0.13,4.29 -2.42,4.29 -2.29,0 -2.42,-2.28 -2.42,-4.3 z m 2.42,3.5 c 1.29,0 1.37,-1.71 1.37,-3.5 0,-1.79 -0.07,-3.57 -1.37,-3.58 -1.3,-0.01 -1.37,1.7 -1.37,3.57 0,1.87 0.07,3.52 1.37,3.52 z"
		 id="path1225" />
	  <path
		 d="m 319,22.44 c 0,-1.87 0.13,-4.37 2.42,-4.36 2.29,0.01 2.42,2.28 2.42,4.37 0,1.8 -0.13,4.29 -2.42,4.29 -2.29,0 -2.42,-2.29 -2.42,-4.3 z m 2.42,3.5 c 1.3,0 1.37,-1.71 1.37,-3.5 0,-1.79 -0.07,-3.57 -1.37,-3.57 -1.3,0 -1.37,1.7 -1.37,3.57 0,1.87 0.11,3.5 1.41,3.5 z"
		 id="path1227" />
	  <line
		 class="cls-2"
		 x1="253.06"
		 x2="253.06"
		 y2="14.19"
		 id="line1229"
		 y1="0" />
	  <path
		 d="m 242.28,18.05 h 1 v 5.58 h 1 v 0.86 h -1 v 2.05 h -1 v -2.05 h -3.07 v -0.95 z m -2.16,5.58 h 2.16 v -3.92 0 z"
		 id="path1231" />
	  <path
		 d="m 245.5,25.27 h 1.1 v 1 c 0,0.91 -0.07,1.73 -1.1,2 v -0.56 a 0.84,0.84 0 0 0 0.53,-0.92 V 26.5 h -0.53 z"
		 id="path1233" />
	  <path
		 d="m 247.95,22.42 c 0,-1.87 0.13,-4.37 2.42,-4.36 2.29,0.01 2.42,2.28 2.42,4.37 0,1.8 -0.13,4.29 -2.42,4.29 -2.29,0 -2.42,-2.29 -2.42,-4.3 z m 2.42,3.5 c 1.29,0 1.37,-1.71 1.37,-3.5 0,-1.79 -0.07,-3.58 -1.37,-3.58 -1.3,0 -1.37,1.71 -1.37,3.58 0,1.87 0.07,3.5 1.37,3.5 z"
		 id="path1235" />
	  <path
		 d="m 253.71,22.42 c 0,-1.87 0.13,-4.37 2.42,-4.36 2.29,0.01 2.42,2.28 2.42,4.37 0,1.8 -0.13,4.29 -2.42,4.29 -2.29,0 -2.42,-2.29 -2.42,-4.3 z m 2.42,3.5 c 1.29,0 1.37,-1.71 1.37,-3.5 0,-1.79 -0.07,-3.57 -1.37,-3.57 -1.3,0 -1.37,1.7 -1.37,3.57 0,1.87 0.07,3.5 1.37,3.5 z"
		 id="path1237" />
	  <path
		 d="m 259.47,22.42 c 0,-1.87 0.13,-4.37 2.42,-4.36 2.29,0.01 2.42,2.28 2.42,4.37 0,1.8 -0.13,4.29 -2.42,4.29 -2.29,0 -2.42,-2.29 -2.42,-4.3 z m 2.42,3.5 c 1.3,0 1.37,-1.71 1.37,-3.5 0,-1.79 -0.07,-3.57 -1.37,-3.57 -1.3,0 -1.37,1.7 -1.37,3.57 0,1.87 0.07,3.5 1.37,3.5 z"
		 id="path1239" />
	  <line
		 class="cls-2"
		 x1="194.7"
		 x2="194.7"
		 y2="14.19"
		 id="line1241"
		 y1="0" />
	  <path
		 d="m 186.12,26.53 h -4.75 A 4.53,4.53 0 0 1 183.2,23 l 0.7,-0.59 a 2.51,2.51 0 0 0 1.13,-2 c 0,-0.73 -0.32,-1.52 -1.24,-1.52 -1.31,0 -1.34,1.35 -1.34,1.83 h -1.06 c 0,-1.61 0.67,-2.7 2.41,-2.7 a 2.11,2.11 0 0 1 2.28,2.27 3.35,3.35 0 0 1 -1.49,2.79 l -1.2,1 a 2.64,2.64 0 0 0 -0.92,1.45 h 3.65 z"
		 id="path1243" />
	  <path
		 d="m 187.51,25.26 h 1.1 v 1 c 0,0.91 -0.07,1.73 -1.1,2 V 27.7 a 0.84,0.84 0 0 0 0.53,-0.92 v -0.29 h -0.53 z"
		 id="path1245" />
	  <path
		 d="m 190,22.4 c 0,-1.87 0.13,-4.37 2.42,-4.37 2.29,0 2.42,2.28 2.42,4.37 0,1.8 -0.13,4.29 -2.42,4.29 -2.29,0 -2.42,-2.27 -2.42,-4.29 z m 2.42,3.5 c 1.29,0 1.37,-1.71 1.37,-3.5 0,-1.79 -0.07,-3.57 -1.37,-3.58 -1.3,-0.01 -1.42,1.71 -1.42,3.58 0,1.87 0.08,3.5 1.38,3.5 z"
		 id="path1247" />
	  <path
		 d="m 195.72,22.4 c 0,-1.87 0.13,-4.37 2.42,-4.36 2.29,0.01 2.42,2.28 2.42,4.37 0,1.8 -0.13,4.29 -2.42,4.29 -2.29,0 -2.42,-2.28 -2.42,-4.3 z m 2.42,3.5 c 1.29,0 1.37,-1.71 1.37,-3.5 0,-1.79 -0.07,-3.57 -1.37,-3.57 -1.3,0 -1.37,1.7 -1.37,3.57 0,1.87 0.07,3.51 1.37,3.51 z"
		 id="path1249" />
	  <path
		 d="m 201.48,22.4 c 0,-1.87 0.13,-4.37 2.42,-4.36 2.29,0.01 2.42,2.28 2.42,4.37 0,1.8 -0.13,4.29 -2.42,4.29 -2.29,0 -2.42,-2.28 -2.42,-4.3 z m 2.42,3.5 c 1.3,0 1.37,-1.71 1.37,-3.5 0,-1.79 -0.07,-3.57 -1.37,-3.57 -1.3,0 -1.37,1.7 -1.37,3.57 0,1.87 0.08,3.51 1.37,3.51 z"
		 id="path1251" />
	  <line
		 class="cls-2"
		 x1="136.35001"
		 x2="136.35001"
		 y2="14.19"
		 id="line1253"
		 y1="0" />
	  <path
		 d="m 123.68,19.41 c 1.07,-0.06 2.05,-0.19 2.1,-1.39 h 0.72 v 8.49 h -1 v -6.38 h -1.81 z"
		 id="path1255" />
	  <path
		 d="m 129.52,25.24 h 1.1 v 1 c 0,0.91 -0.07,1.73 -1.1,2 v -0.56 a 0.84,0.84 0 0 0 0.53,-0.92 v -0.29 h -0.53 z"
		 id="path1257" />
	  <path
		 d="m 132,22.39 c 0,-1.87 0.13,-4.37 2.42,-4.37 2.29,0 2.42,2.28 2.42,4.37 0,1.8 -0.13,4.29 -2.42,4.29 -2.29,0 -2.42,-2.28 -2.42,-4.29 z m 2.42,3.5 c 1.29,0 1.37,-1.71 1.37,-3.5 0,-1.79 -0.07,-3.57 -1.37,-3.58 -1.3,-0.01 -1.42,1.7 -1.42,3.58 0,1.88 0.09,3.5 1.39,3.5 z"
		 id="path1259" />
	  <path
		 d="m 137.73,22.39 c 0,-1.87 0.13,-4.36 2.42,-4.36 2.29,0 2.42,2.28 2.42,4.37 0,1.8 -0.13,4.29 -2.42,4.29 -2.29,0 -2.42,-2.29 -2.42,-4.3 z m 2.42,3.5 c 1.29,0 1.37,-1.71 1.37,-3.5 0,-1.79 -0.07,-3.57 -1.37,-3.58 -1.3,-0.01 -1.37,1.7 -1.37,3.57 0,1.87 0.07,3.51 1.37,3.51 z"
		 id="path1261" />
	  <path
		 d="m 143.49,22.39 c 0,-1.87 0.13,-4.37 2.42,-4.36 2.29,0.01 2.42,2.28 2.42,4.37 0,1.8 -0.13,4.29 -2.42,4.29 -2.29,0 -2.42,-2.29 -2.42,-4.3 z m 2.42,3.5 c 1.3,0 1.37,-1.71 1.37,-3.5 0,-1.79 -0.07,-3.57 -1.37,-3.57 -1.3,0 -1.37,1.7 -1.37,3.57 0,1.87 0.08,3.5 1.37,3.5 z"
		 id="path1263" />
	  <line
		 class="cls-2"
		 x1="106.39"
		 x2="106.39"
		 y2="14.19"
		 id="line1265"
		 y1="0" />
	  <path
		 d="m 98.56,18.17 h 3.79 v 0.94 h -3 L 99,21.57 v 0 a 1.92,1.92 0 0 1 1.49,-0.64 c 1.27,0 2.13,1 2.13,2.8 0,1.58 -0.7,2.91 -2.47,2.91 a 2.21,2.21 0 0 1 -2.33,-2.35 h 1.06 c 0,0.44 0.17,1.56 1.29,1.56 1.12,0 1.39,-1.34 1.39,-2.21 0,-0.87 -0.35,-1.92 -1.42,-1.92 a 1.26,1.26 0 0 0 -1.2,0.83 h -0.91 z"
		 id="path1267" />
	  <path
		 d="m 103.61,22.37 c 0,-1.87 0.13,-4.37 2.42,-4.36 2.29,0.01 2.42,2.28 2.42,4.37 0,1.8 -0.13,4.29 -2.42,4.29 -2.29,0 -2.42,-2.28 -2.42,-4.3 z m 2.42,3.5 c 1.29,0 1.37,-1.71 1.37,-3.5 0,-1.79 -0.07,-3.57 -1.37,-3.57 -1.3,0 -1.37,1.7 -1.37,3.57 0,1.87 0.07,3.5 1.34,3.5 z"
		 id="path1269" />
	  <path
		 d="m 109.37,22.37 c 0,-1.87 0.13,-4.37 2.42,-4.36 2.29,0.01 2.42,2.28 2.42,4.37 0,1.8 -0.13,4.29 -2.42,4.29 -2.29,0 -2.42,-2.28 -2.42,-4.3 z m 2.42,3.5 c 1.29,0 1.37,-1.71 1.37,-3.5 0,-1.79 -0.07,-3.57 -1.37,-3.57 -1.3,0 -1.37,1.7 -1.37,3.57 0,1.87 0.07,3.51 1.37,3.51 z"
		 id="path1271" />
	  <path
		 d="M 2.44,3.48 H 4.19 L 6.44,12 H 5 L 4.47,9.9 H 2 L 1.43,12 H 0 Z m 1.82,5.37 -1,-4.22 v 0 l -1,4.22 z"
		 id="path1273" />
	  <path
		 d="m 6.89,3.48 h 1.37 v 7.41 h 3.31 V 12 H 6.89 Z"
		 id="path1275" />
	  <path
		 d="m 12.68,4.63 h -2 V 3.48 H 16 V 4.63 H 14 V 12 h -1.33 z"
		 id="path1277" />
	  <path
		 d="m 16.77,3.48 h 1.37 V 12 h -1.37 z"
		 id="path1279" />
	  <path
		 d="m 20.9,4.63 h -2 V 3.48 h 5.41 v 1.15 h -2 V 12 h -1.42 z"
		 id="path1281" />
	  <path
		 d="m 26.31,3.48 v 6.14 c 0,1.08 0.43,1.56 1.26,1.56 0.83,0 1.25,-0.48 1.25,-1.56 V 3.48 h 1.37 v 6 c 0,2 -1,2.7 -2.62,2.7 -1.62,0 -2.63,-0.72 -2.63,-2.7 v -6 z"
		 id="path1283" />
	  <path
		 d="m 31.49,3.48 h 2.43 c 2.69,0 3,1.75 3,4.28 0,2.53 -0.34,4.28 -3,4.28 H 31.49 Z M 32.86,11 H 34 c 1.13,0 1.59,-0.74 1.6,-3.25 C 35.61,5.24 35.17,4.52 34,4.52 h -1.14 z"
		 id="path1285" />
	  <path
		 d="M 38.17,3.49 H 42.8 V 4.64 H 39.53 V 7 h 3.07 v 1.17 h -3.07 v 2.73 h 3.36 v 1.15 h -4.73 z"
		 id="path1287" />
	  <path
		 d="m 49.22,3.49 a 10.12,10.12 0 0 0 -1.37,5.38 10.44,10.44 0 0 0 1.37,5.39 H 48.3 a 9.15,9.15 0 0 1 0,-10.77 z"
		 id="path1289" />
	  <path
		 d="m 50.24,6.56 h -0.9 v -1 h 0.9 V 5 c 0,-1.22 0.59,-1.61 1.64,-1.61 a 5.58,5.58 0 0 1 0.71,0 v 1 h -0.36 c -0.48,0 -0.7,0.18 -0.7,0.61 v 0.6 h 1.06 v 1 h -1.06 v 5.49 h -1.3 z"
		 id="path1291" />
	  <path
		 d="m 54.29,9 v 0.37 c 0,0.86 0.11,2 1.08,2 0.97,0 1,-1.05 1,-1.44 h 1.22 a 2.13,2.13 0 0 1 -2.27,2.33 c -1.06,0 -2.36,-0.31 -2.36,-3.3 0,-1.69 0.36,-3.49 2.39,-3.49 1.8,0 2.28,1.08 2.28,2.88 V 9 Z M 56.37,8.11 V 7.76 c 0,-0.82 -0.26,-1.44 -1,-1.44 -0.74,0 -1.08,0.82 -1.08,1.68 v 0.13 z"
		 id="path1293" />
	  <path
		 d="m 59.85,9 v 0.37 c 0,0.86 0.11,2 1.08,2 0.97,0 1,-1.06 1,-1.44 h 1.22 a 2.13,2.13 0 0 1 -2.27,2.33 c -1.06,0 -2.36,-0.31 -2.36,-3.3 0,-1.69 0.36,-3.49 2.39,-3.49 1.8,0 2.28,1.08 2.28,2.88 V 9 Z M 61.93,8.11 V 7.76 c 0,-0.82 -0.26,-1.44 -1,-1.44 -0.74,0 -1.08,0.82 -1.08,1.68 v 0.13 z"
		 id="path1295" />
	  <path
		 d="M 63.71,5.61 H 64.6 V 3.77 h 1.3 V 5.61 H 67 v 1 h -1.11 v 3.85 c 0,0.5 0.14,0.68 0.59,0.68 a 2.51,2.51 0 0 0 0.47,0 v 1 a 4.27,4.27 0 0 1 -1,0.11 c -0.88,0 -1.31,-0.24 -1.31,-1.56 v -4 h -0.89 z"
		 id="path1297" />
	  <path
		 d="M 67,14.27 A 10.12,10.12 0 0 0 68.37,8.88 10.42,10.42 0 0 0 67,3.5 h 0.92 a 9.16,9.16 0 0 1 0,10.77 z"
		 id="path1299" />
	</g>
  </g>
  <metadata
	 id="metadata1364">
	<rdf:RDF>
	  <cc:Work
		 rdf:about="">
		<dc:title>alt_legend_feet</dc:title>
	  </cc:Work>
	</rdf:RDF>
  </metadata>
</svg>
